<?xml version="1.0" encoding="UTF-8"?><svg id="Capa_1" xmlns="http://www.w3.org/2000/svg" viewBox="0 0 129.03 166.17"><path d="M124.03,55.3c0,27.78-22.52,50.3-50.3,50.3-5.19,0-10.2-.79-14.92-2.25-7.85-2.43-14.88-6.74-20.56-12.4-9.15-9.11-14.81-21.72-14.81-35.65,0-27.78,22.52-50.3,50.29-50.3s50.3,22.52,50.3,50.3Z" fill="none" stroke="#1d1d1b" stroke-miterlimit="10" stroke-width="10"/><path d="M58.81,103.35l-36.71,57.3c-3.56,5.56-11.02,7.2-16.58,3.64-3.57-2.28-5.52-6.17-5.52-10.13,0-2.22.61-4.46,1.89-6.45l36.36-56.76c5.68,5.66,12.71,9.97,20.56,12.4Z" fill="#1d1d1b"/></svg>