<?xml version="1.0" encoding="UTF-8"?><svg id="Capa_1" xmlns="http://www.w3.org/2000/svg" viewBox="0 0 629.71 46.99"><path d="M10.21,46.31H0V.68h13.82l10.69,22.47,4.29,10.69h.75l4.15-10.69L44.06.68h13.89v45.63h-10.22v-23.15l.34-7.15h-.75l-2.66,7.15-9.53,20.43h-12.39l-9.53-20.43-2.66-7.15h-.75l.41,7.15v23.15Z" fill="#ed6a45"/><path d="M84.38,46.99c-4.95,0-9.08-.79-12.39-2.38-3.31-1.59-5.81-3.86-7.49-6.81-1.68-2.95-2.52-6.47-2.52-10.56V.68h10.22v25.81c0,2.59.37,4.67,1.12,6.23.75,1.57,2.02,2.68,3.81,3.34,1.79.66,4.21.99,7.25.99s5.58-.33,7.36-.99c1.77-.66,3.02-1.77,3.75-3.34.73-1.57,1.09-3.64,1.09-6.23V.68h10.22v26.56c0,4.09-.84,7.61-2.52,10.56-1.68,2.95-4.17,5.22-7.46,6.81-3.29,1.59-7.43,2.38-12.43,2.38Z" fill="#ed6a45"/><path d="M131.64,46.99c-4.59,0-8.49-.6-11.71-1.8-3.22-1.2-5.68-3-7.35-5.38-1.68-2.38-2.52-5.35-2.52-8.89v-.41h10.21v1.23c0,1.41.31,2.54.92,3.41.61.86,1.74,1.5,3.37,1.91,1.63.41,3.99.61,7.08.61,2.72,0,4.81-.15,6.27-.44,1.45-.29,2.45-.76,3-1.4.54-.64.82-1.45.82-2.45,0-1.41-.47-2.43-1.4-3.06-.93-.64-2.55-1.16-4.87-1.57l-12.8-1.84c-2.72-.45-5.05-1.2-6.98-2.25-1.93-1.04-3.42-2.44-4.46-4.19-1.04-1.75-1.57-3.87-1.57-6.37,0-1.73.38-3.43,1.12-5.11.75-1.68,1.94-3.19,3.58-4.53,1.63-1.34,3.78-2.42,6.44-3.23,2.66-.82,5.91-1.23,9.77-1.23,4.68,0,8.52.67,11.54,2.01,3.02,1.34,5.28,3.22,6.78,5.65,1.5,2.43,2.25,5.23,2.25,8.41v.41h-10.28v-.95c0-1.45-.31-2.63-.92-3.54-.61-.91-1.74-1.58-3.37-2.01-1.63-.43-3.97-.65-7.01-.65-2.45,0-4.37.16-5.75.48-1.39.32-2.37.79-2.96,1.43-.59.64-.89,1.45-.89,2.45,0,.86.18,1.58.54,2.15.36.57.93,1.01,1.7,1.33.77.32,1.79.59,3.06.82l12.8,2.04c3.4.54,6.12,1.43,8.14,2.66s3.48,2.71,4.39,4.46c.91,1.75,1.36,3.67,1.36,5.75,0,2.45-.68,4.76-2.04,6.91-1.36,2.16-3.54,3.89-6.54,5.21s-6.9,1.97-11.71,1.97Z" fill="#ed6a45"/><path d="M165.28,46.31h-10.21V.68h10.21v45.63ZM193.68,9.87h-35.75V.68h35.75v9.19ZM192.65,27.92h-34.73v-9.12h34.73v9.12ZM193.68,46.31h-35.75v-9.19h35.75v9.19Z" fill="#ed6a45"/><path d="M220.78,46.99c-4.99,0-9.34-.96-13.04-2.89-3.7-1.93-6.54-4.65-8.51-8.17-1.97-3.52-2.96-7.66-2.96-12.43s.99-8.91,2.96-12.43,4.81-6.24,8.51-8.17c3.7-1.93,8.05-2.89,13.04-2.89s9.6.97,13.28,2.89c3.68,1.93,6.51,4.65,8.51,8.17s3,7.66,3,12.43-1,8.91-3,12.43c-2,3.52-4.83,6.24-8.51,8.17-3.68,1.93-8.1,2.89-13.28,2.89ZM220.78,37.18c3.36,0,6.05-.44,8.07-1.33,2.02-.89,3.5-2.33,4.43-4.32.93-2,1.4-4.68,1.4-8.04s-.47-6.1-1.4-8.07c-.93-1.97-2.41-3.4-4.43-4.29-2.02-.88-4.71-1.33-8.07-1.33s-5.97.44-7.97,1.33c-2,.89-3.45,2.32-4.36,4.29-.91,1.97-1.36,4.67-1.36,8.07s.45,6.04,1.36,8.04c.91,2,2.36,3.44,4.36,4.32,2,.88,4.65,1.33,7.97,1.33Z" fill="#ed6a45"/><path d="M310.19,46.99c-5,0-9.32-.96-12.97-2.89-3.65-1.93-6.47-4.65-8.45-8.17-1.97-3.52-2.96-7.66-2.96-12.43s.99-8.91,2.96-12.43,4.79-6.24,8.45-8.17c3.65-1.93,7.98-2.89,12.97-2.89s8.89.75,12.36,2.25,6.16,3.63,8.07,6.4c1.91,2.77,2.86,6.11,2.86,10.01v1.02h-11.37v-1.02c0-3-.92-5.22-2.76-6.67-1.84-1.45-4.82-2.18-8.95-2.18-3.31,0-5.98.44-8,1.33-2.02.89-3.48,2.32-4.39,4.29-.91,1.97-1.36,4.67-1.36,8.07s.45,6.04,1.36,8.04c.91,2,2.37,3.44,4.39,4.32,2.02.88,4.69,1.33,8,1.33,4.13,0,7.12-.73,8.95-2.18,1.84-1.45,2.76-3.68,2.76-6.67v-1.02h11.37v1.02c0,3.86-.95,7.18-2.86,9.98s-4.6,4.94-8.07,6.44-7.59,2.25-12.36,2.25Z" fill="#ed6a45"/><path d="M360.38,46.99c-5,0-9.34-.96-13.04-2.89-3.7-1.93-6.54-4.65-8.51-8.17-1.97-3.52-2.96-7.66-2.96-12.43s.99-8.91,2.96-12.43,4.81-6.24,8.51-8.17c3.7-1.93,8.05-2.89,13.04-2.89s9.6.97,13.28,2.89c3.68,1.93,6.51,4.65,8.51,8.17,2,3.52,3,7.66,3,12.43s-1,8.91-3,12.43c-2,3.52-4.83,6.24-8.51,8.17-3.68,1.93-8.1,2.89-13.28,2.89ZM360.38,37.18c3.36,0,6.05-.44,8.07-1.33,2.02-.89,3.5-2.33,4.43-4.32.93-2,1.4-4.68,1.4-8.04s-.47-6.1-1.4-8.07-2.41-3.4-4.43-4.29c-2.02-.88-4.71-1.33-8.07-1.33s-5.97.44-7.97,1.33c-2,.89-3.45,2.32-4.36,4.29s-1.36,4.67-1.36,8.07.45,6.04,1.36,8.04c.91,2,2.36,3.44,4.36,4.32,2,.88,4.65,1.33,7.97,1.33Z" fill="#ed6a45"/><path d="M411.93,46.99c-5,0-9.32-.96-12.97-2.89-3.65-1.93-6.47-4.65-8.44-8.17-1.97-3.52-2.96-7.66-2.96-12.43s.99-8.91,2.96-12.43,4.79-6.24,8.44-8.17c3.65-1.93,7.98-2.89,12.97-2.89s8.89.75,12.36,2.25,6.16,3.63,8.07,6.4c1.91,2.77,2.86,6.11,2.86,10.01v1.02h-11.37v-1.02c0-3-.92-5.22-2.76-6.67-1.84-1.45-4.82-2.18-8.95-2.18-3.32,0-5.98.44-8,1.33-2.02.89-3.48,2.32-4.39,4.29s-1.36,4.67-1.36,8.07.45,6.04,1.36,8.04c.91,2,2.37,3.44,4.39,4.32,2.02.88,4.69,1.33,8,1.33,4.13,0,7.12-.73,8.95-2.18,1.84-1.45,2.76-3.68,2.76-6.67v-1.02h11.37v1.02c0,3.86-.95,7.18-2.86,9.98s-4.6,4.94-8.07,6.44-7.59,2.25-12.36,2.25Z" fill="#ed6a45"/><path d="M462.12,46.99c-5,0-9.34-.96-13.04-2.89-3.7-1.93-6.54-4.65-8.51-8.17-1.97-3.52-2.96-7.66-2.96-12.43s.99-8.91,2.96-12.43,4.81-6.24,8.51-8.17c3.7-1.93,8.05-2.89,13.04-2.89s9.6.97,13.28,2.89c3.68,1.93,6.51,4.65,8.51,8.17,2,3.52,3,7.66,3,12.43s-1,8.91-3,12.43c-2,3.52-4.83,6.24-8.51,8.17-3.68,1.93-8.1,2.89-13.28,2.89ZM462.12,37.18c3.36,0,6.05-.44,8.07-1.33,2.02-.89,3.5-2.33,4.43-4.32.93-2,1.4-4.68,1.4-8.04s-.47-6.1-1.4-8.07-2.41-3.4-4.43-4.29c-2.02-.88-4.71-1.33-8.07-1.33s-5.97.44-7.97,1.33c-2,.89-3.45,2.32-4.36,4.29s-1.36,4.67-1.36,8.07.45,6.04,1.36,8.04c.91,2,2.36,3.44,4.36,4.32,2,.88,4.65,1.33,7.97,1.33Z" fill="#ed6a45"/><path d="M500.53,46.31h-10.21V.68h10.9l16.34,21.59,6.27,9.6h.75l-.48-9.19V.68h10.22v45.63h-10.9l-16.82-21.79-5.79-8.58h-.68l.41,8.38v22Z" fill="#ed6a45"/><path d="M560.8,46.99c-4.95,0-9.08-.79-12.39-2.38-3.31-1.59-5.81-3.86-7.49-6.81-1.68-2.95-2.52-6.47-2.52-10.56V.68h10.22v25.81c0,2.59.38,4.67,1.12,6.23.75,1.57,2.02,2.68,3.81,3.34,1.79.66,4.21.99,7.25.99s5.58-.33,7.36-.99c1.77-.66,3.02-1.77,3.74-3.34.73-1.57,1.09-3.64,1.09-6.23V.68h10.22v26.56c0,4.09-.84,7.61-2.52,10.56-1.68,2.95-4.17,5.22-7.46,6.81-3.29,1.59-7.43,2.38-12.43,2.38Z" fill="#ed6a45"/><path d="M629.71,9.87h-44.13V.68h44.13v9.19ZM612.76,46.31h-10.22V.68h10.22v45.63Z" fill="#ed6a45"/></svg>